<svg width="32" height="27" viewBox="0 0 32 27" fill="none" xmlns="http://www.w3.org/2000/svg">
<path d="M0.757812 1.06968C0.757812 0.81564 0.872706 0.572003 1.07722 0.392369C1.28173 0.212734 1.55911 0.111816 1.84833 0.111816H2.80362C4.38923 0.111816 5.3009 1.01796 5.82871 1.92218C6.18858 2.54096 6.44813 3.29576 6.66405 3.95094H29.1178C29.4548 3.95103 29.7872 4.01971 30.0889 4.1516C30.3906 4.28349 30.6534 4.475 30.8567 4.71109C31.06 4.94719 31.1982 5.22145 31.2605 5.51236C31.3229 5.80326 31.3076 6.1029 31.2159 6.38775L27.9531 16.4932C27.6936 17.295 27.1434 18.0005 26.3862 18.5029C25.6289 19.0052 24.7058 19.2769 23.7568 19.2768H12.6793C11.7225 19.2771 10.792 19.001 10.0314 18.4911C9.27074 17.9812 8.72208 17.2657 8.46994 16.4549L7.06972 11.9434L7.04791 11.8821L4.80145 5.18084L4.58334 4.53524C4.36524 3.8724 4.17331 3.28618 3.88541 2.79384C3.53863 2.19996 3.2202 2.02755 2.80362 2.02755H1.84833C1.55911 2.02755 1.28173 1.92663 1.07722 1.747C0.872706 1.56736 0.757812 1.32372 0.757812 1.06968ZM9.15043 11.3648L10.5746 15.9549C10.7009 16.3601 10.9753 16.7176 11.3556 16.9724C11.7359 17.2272 12.201 17.3651 12.6793 17.3649H23.759C24.2332 17.3645 24.6944 17.2283 25.0726 16.977C25.4508 16.7256 25.7255 16.3729 25.855 15.9722L29.1178 5.86667H7.30745L9.15043 11.3648ZM16.0316 24.0642C16.0316 24.8263 15.6869 25.5572 15.0734 26.0961C14.4598 26.635 13.6277 26.9378 12.76 26.9378C11.8924 26.9378 11.0602 26.635 10.4467 26.0961C9.83317 25.5572 9.48849 24.8263 9.48849 24.0642C9.48849 23.3021 9.83317 22.5712 10.4467 22.0323C11.0602 21.4934 11.8924 21.1906 12.76 21.1906C13.6277 21.1906 14.4598 21.4934 15.0734 22.0323C15.6869 22.5712 16.0316 23.3021 16.0316 24.0642ZM13.8506 24.0642C13.8506 23.8102 13.7357 23.5665 13.5312 23.3869C13.3266 23.2073 13.0493 23.1063 12.76 23.1063C12.4708 23.1063 12.1934 23.2073 11.9889 23.3869C11.7844 23.5665 11.6695 23.8102 11.6695 24.0642C11.6695 24.3182 11.7844 24.5619 11.9889 24.7415C12.1934 24.9212 12.4708 25.0221 12.76 25.0221C13.0493 25.0221 13.3266 24.9212 13.5312 24.7415C13.7357 24.5619 13.8506 24.3182 13.8506 24.0642ZM26.9368 24.0642C26.9368 24.8263 26.5921 25.5572 25.9785 26.0961C25.365 26.635 24.5329 26.9378 23.6652 26.9378C22.7975 26.9378 21.9654 26.635 21.3519 26.0961C20.7383 25.5572 20.3937 24.8263 20.3937 24.0642C20.3937 23.3021 20.7383 22.5712 21.3519 22.0323C21.9654 21.4934 22.7975 21.1906 23.6652 21.1906C24.5329 21.1906 25.365 21.4934 25.9785 22.0323C26.5921 22.5712 26.9368 23.3021 26.9368 24.0642ZM24.7557 24.0642C24.7557 23.8102 24.6408 23.5665 24.4363 23.3869C24.2318 23.2073 23.9544 23.1063 23.6652 23.1063C23.376 23.1063 23.0986 23.2073 22.8941 23.3869C22.6896 23.5665 22.5747 23.8102 22.5747 24.0642C22.5747 24.3182 22.6896 24.5619 22.8941 24.7415C23.0986 24.9212 23.376 25.0221 23.6652 25.0221C23.9544 25.0221 24.2318 24.9212 24.4363 24.7415C24.6408 24.5619 24.7557 24.3182 24.7557 24.0642Z" fill="black"/>
</svg>
