<svg width="28" height="28" viewBox="0 0 28 28" fill="none" xmlns="http://www.w3.org/2000/svg">
<path d="M18.7001 25.5567C19.7575 25.5567 20.6146 24.6996 20.6146 23.6423C20.6146 22.5849 19.7575 21.7278 18.7001 21.7278C17.6428 21.7278 16.7856 22.5849 16.7856 23.6423C16.7856 24.6996 17.6428 25.5567 18.7001 25.5567Z" fill="white"/>
<path d="M9.94842 25.5567C11.0058 25.5567 11.8629 24.6996 11.8629 23.6423C11.8629 22.5849 11.0058 21.7278 9.94842 21.7278C8.89108 21.7278 8.03394 22.5849 8.03394 23.6423C8.03394 24.6996 8.89108 25.5567 9.94842 25.5567Z" fill="white"/>
<path d="M6.21795 5.2524L5.99915 7.93267C5.95539 8.44685 6.36017 8.8735 6.87434 8.8735H23.6233C24.0828 8.8735 24.4657 8.52343 24.4985 8.06395C24.6407 6.12759 23.1638 4.55225 21.2275 4.55225H7.78235C7.67295 4.07089 7.45416 3.61142 7.11502 3.22852C6.56802 2.64871 5.80223 2.30957 5.01456 2.30957H3.11102C2.66248 2.30957 2.29053 2.68153 2.29053 3.13006C2.29053 3.5786 2.66248 3.95055 3.11102 3.95055H5.01456C5.3537 3.95055 5.67095 4.09277 5.90069 4.33345C6.13043 4.58507 6.23983 4.91326 6.21795 5.2524Z" fill="white"/>
<path d="M23.3606 10.5144H6.57885C6.11938 10.5144 5.74742 10.8645 5.70366 11.313L5.30983 16.0719C5.15667 17.9426 6.62261 19.5398 8.49333 19.5398H20.6585C22.2995 19.5398 23.7435 18.1942 23.8639 16.5532L24.2249 11.4443C24.2687 10.9411 23.8748 10.5144 23.3606 10.5144Z" fill="white"/>
</svg>
