<svg width="26" height="26" viewBox="0 0 26 26" fill="none" xmlns="http://www.w3.org/2000/svg">
<circle cx="12.8982" cy="12.9721" r="12.6389" fill="white"/>
<path fill-rule="evenodd" clip-rule="evenodd" d="M8.96734 5.59963C7.06668 5.59963 5.5259 7.14041 5.5259 9.04107V16.9772C5.5259 18.8779 7.06668 20.4186 8.96734 20.4186H16.9035C18.8041 20.4186 20.3449 18.8779 20.3449 16.9772V9.04107C20.3449 7.14041 18.8041 5.59963 16.9035 5.59963H8.96734ZM4.47266 9.04107C4.47266 6.55872 6.48499 4.54639 8.96734 4.54639H16.9035C19.3858 4.54639 21.3981 6.55872 21.3981 9.04107V16.9772C21.3981 19.4595 19.3858 21.4719 16.9035 21.4719H8.96734C6.48499 21.4719 4.47266 19.4595 4.47266 16.9772V9.04107ZM13.3583 10.3554C12.8074 10.2738 12.2447 10.3679 11.7504 10.6244C11.256 10.8809 10.8551 11.2867 10.6047 11.7842C10.3543 12.2817 10.2672 12.8454 10.3557 13.3953C10.4442 13.9452 10.7038 14.4531 11.0976 14.8469C11.4914 15.2407 11.9994 15.5004 12.5492 15.5888C13.0991 15.6773 13.6628 15.5902 14.1603 15.3398C14.6578 15.0894 15.0636 14.6885 15.3201 14.1941C15.5767 13.6998 15.6708 13.1372 15.5891 12.5862C15.5057 12.0243 15.2439 11.504 14.8422 11.1023C14.4405 10.7006 13.9202 10.4388 13.3583 10.3554ZM11.2653 9.68948C11.9563 9.33094 12.7427 9.19941 13.5128 9.3136C14.2982 9.43007 15.0254 9.79609 15.5869 10.3576C16.1484 10.9191 16.5144 11.6463 16.6309 12.4317C16.7451 13.2018 16.6136 13.9882 16.255 14.6792C15.8965 15.3702 15.3292 15.9306 14.6338 16.2806C13.9385 16.6306 13.1505 16.7524 12.3819 16.6287C11.6133 16.505 10.9033 16.1421 10.3528 15.5917C9.80236 15.0412 9.43948 14.3312 9.31581 13.5626C9.19213 12.794 9.31396 12.006 9.66395 11.3107C10.0139 10.6153 10.5743 10.048 11.2653 9.68948ZM17.3003 8.11776C17.0095 8.11776 16.7737 8.35353 16.7737 8.64438C16.7737 8.93522 17.0095 9.171 17.3003 9.171H17.3094C17.6003 9.171 17.836 8.93522 17.836 8.64438C17.836 8.35353 17.6003 8.11776 17.3094 8.11776H17.3003Z" fill="black"/>
</svg>
