<svg width="38" height="33" viewBox="0 0 38 33" fill="none" xmlns="http://www.w3.org/2000/svg">
<path d="M0.414062 1.42226C0.414062 1.11783 0.551744 0.825872 0.796817 0.61061C1.04189 0.395347 1.37428 0.274414 1.72087 0.274414H2.86563C4.76572 0.274414 5.85821 1.36027 6.4907 2.44384C6.92195 3.18535 7.23297 4.08985 7.49172 4.87498H34.3988C34.8027 4.87508 35.201 4.95739 35.5625 5.11543C35.9241 5.27348 36.239 5.50297 36.4826 5.78589C36.7262 6.06881 36.8919 6.39747 36.9666 6.74607C37.0413 7.09468 37.023 7.45374 36.9131 7.79509L33.0032 19.9049C32.6921 20.8656 32.0329 21.7111 31.1254 22.3131C30.218 22.915 29.1118 23.2406 27.9746 23.2405H14.7001C13.5534 23.2408 12.4384 22.91 11.5269 22.2989C10.6154 21.6879 9.95793 20.8305 9.65578 19.8589L7.97785 14.4526L7.95171 14.3791L5.25969 6.34881L4.99833 5.57516C4.73697 4.78085 4.50698 4.07837 4.16198 3.48838C3.74642 2.77672 3.36483 2.5701 2.86563 2.5701H1.72087C1.37428 2.5701 1.04189 2.44917 0.796817 2.23391C0.551744 2.01864 0.414062 1.72669 0.414062 1.42226ZM10.4712 13.7593L12.1779 19.2598C12.3292 19.7453 12.6581 20.1738 13.1138 20.4791C13.5695 20.7844 14.1269 20.9496 14.7001 20.9494H27.9772C28.5455 20.9489 29.0981 20.7857 29.5514 20.4845C30.0046 20.1834 30.3337 19.7606 30.4889 19.2804L34.3988 7.17066H8.26273L10.4712 13.7593ZM18.7172 28.9774C18.7172 29.8907 18.3041 30.7666 17.5689 31.4124C16.8337 32.0581 15.8365 32.421 14.7968 32.421C13.757 32.421 12.7598 32.0581 12.0246 31.4124C11.2894 30.7666 10.8763 29.8907 10.8763 28.9774C10.8763 28.0641 11.2894 27.1883 12.0246 26.5425C12.7598 25.8967 13.757 25.5339 14.7968 25.5339C15.8365 25.5339 16.8337 25.8967 17.5689 26.5425C18.3041 27.1883 18.7172 28.0641 18.7172 28.9774ZM16.1036 28.9774C16.1036 28.673 15.9659 28.381 15.7208 28.1658C15.4757 27.9505 15.1433 27.8296 14.7968 27.8296C14.4502 27.8296 14.1178 27.9505 13.8727 28.1658C13.6276 28.381 13.49 28.673 13.49 28.9774C13.49 29.2818 13.6276 29.5738 13.8727 29.7891C14.1178 30.0043 14.4502 30.1253 14.7968 30.1253C15.1433 30.1253 15.4757 30.0043 15.7208 29.7891C15.9659 29.5738 16.1036 29.2818 16.1036 28.9774ZM31.7852 28.9774C31.7852 29.8907 31.3722 30.7666 30.637 31.4124C29.9017 32.0581 28.9046 32.421 27.8648 32.421C26.825 32.421 25.8279 32.0581 25.0927 31.4124C24.3574 30.7666 23.9444 29.8907 23.9444 28.9774C23.9444 28.0641 24.3574 27.1883 25.0927 26.5425C25.8279 25.8967 26.825 25.5339 27.8648 25.5339C28.9046 25.5339 29.9017 25.8967 30.637 26.5425C31.3722 27.1883 31.7852 28.0641 31.7852 28.9774ZM29.1716 28.9774C29.1716 28.673 29.0339 28.381 28.7889 28.1658C28.5438 27.9505 28.2114 27.8296 27.8648 27.8296C27.5182 27.8296 27.1858 27.9505 26.9408 28.1658C26.6957 28.381 26.558 28.673 26.558 28.9774C26.558 29.2818 26.6957 29.5738 26.9408 29.7891C27.1858 30.0043 27.5182 30.1253 27.8648 30.1253C28.2114 30.1253 28.5438 30.0043 28.7889 29.7891C29.0339 29.5738 29.1716 29.2818 29.1716 28.9774Z" fill="black"/>
</svg>
