<svg width="38" height="29" viewBox="0 0 38 29" fill="none" xmlns="http://www.w3.org/2000/svg">
<path d="M37.2001 2.67389C37.1614 2.7514 37.1032 2.80953 37.0451 2.88704L24.2368 17.4392C22.8611 19.0088 20.8846 19.9001 18.7919 19.9001C16.6991 19.8807 14.7227 18.9894 13.3469 17.4392L0.364258 2.69327C0.131733 3.21645 -0.00390625 3.81714 -0.00390625 4.4372V21.1209C-0.00390625 25.4226 3.48397 28.9299 7.80506 28.9299H29.7787C34.0804 28.9299 37.5877 25.442 37.5877 21.1209V4.4372C37.5683 3.79776 37.452 3.21645 37.2001 2.67389Z" fill="#0C0057"/>
<path d="M16.2543 14.8429C16.8937 15.5792 17.7851 15.9861 18.7733 15.9861C19.7422 15.9861 20.6529 15.5792 21.2923 14.8429L34.12 0.290656C34.1587 0.232525 34.2169 0.193771 34.275 0.155017C33.9068 0.0581313 33.5193 0 33.1317 0H4.41489C4.02735 0 3.65918 0.0581313 3.29102 0.155017L16.2543 14.8429Z" fill="#0C0057"/>
</svg>
