<svg width="32" height="31" viewBox="0 0 32 31" fill="none" xmlns="http://www.w3.org/2000/svg">
<circle cx="16.1569" cy="15.2931" r="15.1842" fill="white"/>
<path fill-rule="evenodd" clip-rule="evenodd" d="M11.435 6.43552C9.15159 6.43552 7.30051 8.2866 7.30051 10.57V20.1044C7.30051 22.3878 9.15159 24.2389 11.435 24.2389H20.9694C23.2528 24.2389 25.1039 22.3878 25.1039 20.1044V10.57C25.1039 8.2866 23.2528 6.43552 20.9694 6.43552H11.435ZM6.03516 10.57C6.03516 7.58777 8.45276 5.17017 11.435 5.17017H20.9694C23.9517 5.17017 26.3693 7.58777 26.3693 10.57V20.1044C26.3693 23.0867 23.9517 25.5043 20.9694 25.5043H11.435C8.45276 25.5043 6.03516 23.0867 6.03516 20.1044V10.57ZM16.7088 12.1493C16.0469 12.0512 15.3709 12.1643 14.777 12.4724C14.1831 12.7806 13.7015 13.2682 13.4007 13.8658C13.0999 14.4635 12.9952 15.1408 13.1015 15.8014C13.2078 16.462 13.5197 17.0722 13.9928 17.5454C14.4659 18.0185 15.0762 18.3304 15.7368 18.4367C16.3974 18.543 17.0747 18.4383 17.6723 18.1375C18.27 17.8366 18.7576 17.355 19.0657 16.7611C19.3739 16.1672 19.487 15.4913 19.3888 14.8294C19.2887 14.1543 18.9741 13.5293 18.4915 13.0467C18.0089 12.5641 17.3839 12.2495 16.7088 12.1493ZM14.1943 11.3493C15.0244 10.9185 15.9692 10.7605 16.8944 10.8977C17.838 11.0376 18.7117 11.4773 19.3862 12.1519C20.0608 12.8265 20.5005 13.7001 20.6405 14.6438C20.7777 15.5689 20.6196 16.5138 20.1889 17.3439C19.7582 18.174 19.0766 18.8472 18.2412 19.2677C17.4058 19.6882 16.4591 19.8345 15.5357 19.686C14.6124 19.5374 13.7594 19.1014 13.0981 18.4401C12.4367 17.7788 12.0008 16.9258 11.8522 16.0024C11.7036 15.079 11.85 14.1323 12.2704 13.2969C12.6909 12.4615 13.3641 11.78 14.1943 11.3493ZM21.4447 9.46077C21.0953 9.46077 20.812 9.74403 20.812 10.0934C20.812 10.4429 21.0953 10.7261 21.4447 10.7261H21.4556C21.805 10.7261 22.0883 10.4429 22.0883 10.0934C22.0883 9.74403 21.805 9.46077 21.4556 9.46077H21.4447Z" fill="black"/>
</svg>
