<svg width="36" height="46" viewBox="0 0 36 46" fill="none" xmlns="http://www.w3.org/2000/svg">
<g clip-path="url(#clip0_325_9056)">
<path d="M18 0C8.06557 0 0 8.06557 0 18C0 25.2541 9.59016 37.5246 14.7787 43.6475C16.4754 45.6393 19.5492 45.6393 21.2459 43.6475C26.4344 37.5492 36.0246 25.2541 36.0246 18C36 8.06557 27.9344 0 18 0ZM18 21.4426C15.6393 21.4426 13.6967 19.5246 13.6967 17.1393C13.6967 14.7787 15.6148 12.8361 18 12.8361C20.3607 12.8361 22.3033 14.7541 22.3033 17.1393C22.3033 19.5 20.3607 21.4426 18 21.4426Z" fill="#0C0057"/>
</g>
<defs>
<clipPath id="clip0_325_9056">
<rect width="36" height="45.123" fill="white"/>
</clipPath>
</defs>
</svg>
