<svg width="40" height="43" viewBox="0 0 40 43" fill="none" xmlns="http://www.w3.org/2000/svg">
<path fill-rule="evenodd" clip-rule="evenodd" d="M35.0529 28.2187C33.3579 27.0649 31.1786 25.7362 29.1809 26.6803C27.6674 27.4145 26.6686 30.1417 25.7 31.5752C25.1854 32.3095 24.5801 32.4144 23.8234 32.0647C18.1027 29.4424 13.7138 25.002 10.5356 18.9183C9.99076 17.9742 10.0816 17.24 10.7475 16.3659C11.716 15.0722 12.8965 13.6037 13.1689 11.8555C13.4413 10.1073 12.7149 8.04444 12.0793 6.50602C11.2923 4.51307 10.3842 1.68098 8.65895 0.56213C7.05473 -0.521755 4.96622 0.0726344 3.57387 1.40127C1.12214 3.7089 -0.0583223 7.27523 0.00221432 10.8416C0.00221432 11.8555 0.123288 12.8695 0.335166 13.8485C0.819459 16.1911 1.75778 18.3938 2.81717 20.4916C3.60414 22.065 4.48193 23.6034 5.42024 25.0719C8.47734 29.862 12.2911 34.0577 16.7103 37.1695C18.9199 38.7429 21.2808 40.1065 23.7326 41.0505C26.487 42.0994 28.9387 43.1833 31.9353 42.554C35.0529 41.8547 38.1403 39.6519 39.351 36.1555C39.7142 35.1416 39.8958 33.9878 39.684 32.9039C39.2602 30.6312 36.6269 29.3026 35.0529 28.2187Z" fill="#0C0057"/>
</svg>
