<svg width="33" height="27" viewBox="0 0 33 27" fill="none" xmlns="http://www.w3.org/2000/svg">
<g clip-path="url(#clip0_325_9050)">
<path d="M1.97335 11.5845C1.97335 11.5845 16.2024 5.74938 21.1275 3.69371C23.0225 2.8693 29.4358 0.235476 29.4358 0.235476C29.4358 0.235476 32.3908 -0.920837 32.1446 1.88429C32.0589 3.04061 31.4058 7.06629 30.742 11.4239C29.757 17.5909 28.6863 24.336 28.6863 24.336C28.6863 24.336 28.5257 26.2311 27.1232 26.5523C25.7206 26.8842 23.4187 25.396 23.0118 25.0748C22.6799 24.8285 16.8448 21.1241 14.7035 19.3146C14.1253 18.8221 13.4722 17.8371 14.7892 16.6808C17.7442 13.972 21.2881 10.5995 23.4187 8.45815C24.4037 7.47314 25.3887 5.17122 21.2774 7.96564C15.4423 11.9913 9.68211 15.7815 9.68211 15.7815C9.68211 15.7815 8.3652 16.6059 5.90268 15.8671C3.44016 15.1284 0.560081 14.1434 0.560081 14.1434C0.560081 14.1434 -1.39923 12.9014 1.97335 11.5845Z" fill="#0E6FE4"/>
</g>
<defs>
<clipPath id="clip0_325_9050">
<rect width="32.1626" height="26.5952" fill="white"/>
</clipPath>
</defs>
</svg>
